<svg width="16" height="16" viewBox="0 0 16 16" fill="none" xmlns="http://www.w3.org/2000/svg">
<path fill-rule="evenodd" clip-rule="evenodd" d="M12.192 9.80474C12.4524 10.0651 12.8745 10.0651 13.1348 9.80474C13.3952 9.54439 13.3952 9.12228 13.1348 8.86193L8.47447 4.20158C8.47241 4.19947 8.47033 4.19736 8.46823 4.19526C8.33754 4.06457 8.16608 3.99948 7.99479 4C7.82482 4.0005 7.65502 4.06559 7.52534 4.19526C7.52325 4.19735 7.52119 4.19944 7.51913 4.20155L2.85876 8.86193C2.5984 9.12228 2.5984 9.54439 2.85876 9.80474C3.1191 10.0651 3.54121 10.0651 3.80156 9.80474L7.99679 5.60952L12.192 9.80474Z" fill="#FCFCFC"/>
</svg>
